<svg xmlns="http://www.w3.org/2000/svg" xmlns:xlink="http://www.w3.org/1999/xlink" version="1.1" x="0px" y="0px" viewBox="0 0 100 125" enable-background="new 0 0 100 100" xml:space="preserve"><g><polygon points="77.073,68.859 80.885,68.859 80.885,31.14 77.073,31.14 77.073,31.272 73.262,34.426 73.262,48.356 77.073,51.51     "/><polygon points="19.116,47.174 25.293,47.174 25.293,68.859 29.104,68.859 29.104,47.174 35.018,47.174 35.018,45.269    35.018,43.363 35.018,34.294 31.206,31.14 31.206,43.363 28.973,43.363 28.973,31.14 25.16,31.14 25.16,43.363 22.927,43.363    22.927,31.14 19.115,34.294 19.115,45.728 19.116,45.728  "/><path d="M41.129,67.018h25.627v-3.611h3.614V37.777h-3.614v-3.614H41.129v3.614h-3.614v25.629h3.614V67.018z M41.133,40.599h2.818   v-2.818h19.982v2.818h2.818v19.983h-2.818V63.4H43.951v-2.818h-2.818V40.599z"/><rect x="47.301" y="43.949" width="13.283" height="13.283"/><path d="M6.875,13.438v73.125h86.25V13.438H6.875z M88.125,81.563h-76.25V18.438h76.25V81.563z"/></g></svg>